<?xml version="1.0" encoding="utf-8"?>
<!-- Generator: Adobe Illustrator 27.9.0, SVG Export Plug-In . SVG Version: 6.00 Build 0)  -->
<svg version="1.1" id="Layer_1" xmlns="http://www.w3.org/2000/svg" xmlns:xlink="http://www.w3.org/1999/xlink" x="0px" y="0px"
	 viewBox="0 0 59.3 67.8" style="enable-background:new 0 0 59.3 67.8;" xml:space="preserve">
<style type="text/css">
	.st0{fill:#FFFFFF;stroke:#FFFFFF;stroke-miterlimit:10;}
</style>
<path class="st0" d="M45.5,31.9c0,0.6-0.1,1.1-0.1,1.7c0,9.7,0,19.4,0,29c0,1.7-0.3,3.2-2,4c-3.1,1.5-6.1-0.3-6.1-3.8
	c0-4.5,0-9,0-13.5c0-1.8-1.2-2.8-2.8-2.6c-1.2,0.2-2,1.2-2,2.7c0,3.3,0,6.5,0,9.8c0,1.3,0,2.6,0,4c0,1.8-0.9,3-2.4,3.7
	c-1.5,0.7-2.9,0.2-4.2-0.6c-1.3-0.8-1.5-2.2-1.5-3.7c0-8.3,0.1-16.7,0.1-25c0-1.5,0-3,0-4.5c0-2-0.8-3.5-2.5-4.7
	c-2.5-1.8-5.1-3.6-7-5.9c-2.4-2.9-4.4-6.2-6.3-9.4c-1.2-2-0.2-4.4,1.9-5.3c2-0.9,4,0.1,5,2.2c3.5,7.4,9.1,12.4,17.2,14.4
	c3.2,0.8,6.2,0,9-1.6c1.1-0.6,2.4-1.2,3.7-1.3c2.5-0.2,4.4,1.1,5.6,3.3c2.5,4.5,5,9.1,7.5,13.6c1,1.9,0.3,4.2-1.5,5.2
	c-1.9,1-4.1,0.4-5.2-1.5c-1.7-3-3.4-6.2-5-9.2c-0.2-0.4-0.5-0.7-0.7-1.1C45.8,31.9,45.7,31.9,45.5,31.9z"/>
<path class="st0" d="M25.1,13.6c0-5.4,4.3-9.7,9.8-9.7c5.5,0,9.7,4.3,9.7,9.8c0,5.4-4.3,9.7-9.8,9.7C29.4,23.3,25.1,19,25.1,13.6z"
	/>
<path class="st0" d="M15.9,1.3c-0.6,1.7-1.2,3.2-1.8,4.6c-0.1,0.3-0.9,0.5-1.2,0.3c-0.3-0.2-0.6-0.8-0.6-1.1
	c0.4-1.4,0.9-2.8,1.5-4.1c0.1-0.3,0.8-0.6,1.1-0.5C15.4,0.6,15.7,1.1,15.9,1.3z"/>
<path class="st0" d="M9.8,5.5C9.4,5.9,9.2,6.4,8.9,6.4c-0.4,0.1-1-0.1-1.1-0.4C7.1,4.7,6.5,3.3,5.9,1.9C5.8,1.7,6,1.1,6.3,0.8
	c0.2-0.2,0.9-0.1,1,0C8.2,2.4,8.9,3.9,9.8,5.5z"/>
<path class="st0" d="M5.5,10.1C3.8,9.5,2.3,9,0.9,8.4C0.6,8.2,0.4,7.5,0.5,7.2c0.1-0.3,0.8-0.7,1.1-0.6C3.1,7,4.5,7.6,5.8,8.2
	C6.1,8.3,6.4,9,6.3,9.3C6.3,9.6,5.7,9.9,5.5,10.1z"/>
</svg>
