<?xml version="1.0" encoding="utf-8"?>
<svg version="1.1" id="Layer_1" data-name="Layer 1" xmlns="http://www.w3.org/2000/svg" xmlns:xlink="http://www.w3.org/1999/xlink" x="0px" y="0px" 
     viewBox="0 0 59.27 67.81" style="enable-background:new 0 59.27 67.81;" xml:space="preserve">
<style type="text/css">
  .cls-1 {fill: #FFFFFF;stroke: #000000;stroke-miterlimit: 10;}
</style>
<path class="cls-1" d="m45.55,31.88c-.04.58-.12,1.15-.12,1.73,0,9.68-.02,19.37-.02,29.05,0,1.67-.28,3.18-2,4.02-3.1,1.51-6.11-.33-6.14-3.83-.04-4.5,0-9.01-.03-13.51,0-1.78-1.16-2.82-2.81-2.58-1.23.17-2,1.16-2.01,2.71-.03,3.27,0,6.54-.02,9.8,0,1.32-.04,2.63-.04,3.95,0,1.75-.92,2.99-2.38,3.73-1.45.74-2.91.24-4.2-.59-1.33-.85-1.54-2.25-1.54-3.69.04-8.33.08-16.66.13-24.99,0-1.51.02-3.03.04-4.54.03-2.03-.79-3.51-2.47-4.74-2.46-1.81-5.08-3.59-7.03-5.89-2.43-2.86-4.37-6.16-6.32-9.4-1.21-2.01-.25-4.35,1.86-5.27,1.97-.86,3.96.08,4.97,2.21,3.52,7.39,9.15,12.38,17.15,14.45,3.15.82,6.16-.02,9-1.57,1.13-.62,2.41-1.2,3.67-1.32,2.53-.25,4.37,1.14,5.56,3.26,2.54,4.51,5.02,9.06,7.49,13.61,1.04,1.91.35,4.19-1.47,5.17-1.87,1.01-4.09.41-5.17-1.51-1.72-3.05-3.36-6.15-5.04-9.23-.2-.37-.45-.72-.67-1.08-.13.02-.26.03-.39.05Z"/>
<path class="cls-1" d="m25.13,13.55c.02-5.45,4.31-9.7,9.76-9.67,5.46.04,9.71,4.31,9.69,9.76-.02,5.41-4.34,9.69-9.78,9.67-5.44-.01-9.69-4.3-9.67-9.76Z"/>
<path class="cls-1" d="m15.95,1.33c-.65,1.69-1.18,3.18-1.84,4.61-.12.26-.89.48-1.17.34-.31-.15-.65-.81-.55-1.12.42-1.4.94-2.78,1.54-4.11.14-.31.77-.59,1.13-.54.34.04.61.54.89.82Z"/>
<path class="cls-1" d="m9.77,5.54c-.35.39-.56.85-.85.9-.35.06-.97-.11-1.11-.38-.71-1.34-1.34-2.72-1.89-4.12-.11-.29.12-.87.38-1.11.2-.18.94-.15,1.04.02.85,1.51,1.61,3.08,2.43,4.69Z"/>
<path class="cls-1" d="m5.47,10.15c-1.67-.64-3.14-1.15-4.55-1.79-.27-.12-.51-.88-.38-1.17.14-.31.81-.66,1.12-.56,1.41.42,2.8.94,4.14,1.55.3.14.58.78.52,1.13-.06.33-.57.59-.85.84Z"/>
</svg>